<svg width="666" height="672" fill="none" xmlns="http://www.w3.org/2000/svg">
<path fill-rule="evenodd" clip-rule="evenodd" d="M153 11.5C142 4.5 130 0.5 117 0.5C110 0.5 103 1.5 97 3.5C84 3.5 72 6.5 60 12.5C54 16.5 49 20.5 44 25.5C34 31.5 24 40.5 17 51.5C14 57.5 12 63.5 10 70.5C3 80.5 0 93.5 0 106.5C0 113.5 1 120.5 3 126.5C2 138.5 5 151.5 12 162.5C15 168.5 19 174.5 24 178.5C30 189.5 39 199.5 50 205.5C56 209.5 63 211.5 69 213.5C80 219.5 92 223.5 105 223.5C112 223.5 119 222.5 125 220.5C138 221.5 150 218.5 162 211.5C168 208.5 173 203.5 178 198.5C189 193.5 198 184.5 205 172.5C208 166.5 211 160.5 212 153.5C219 143.5 222 131.5 222 117.5C222 110.5 221 104.5 219 97.5C220 85.5 217 72.5 210 61.5C207 55.5 203 50.5 198 45.5C192 34.5 183 25.5 172 18.5C166 15.5 159 12.5 153 11.5ZM214 142.5C215 117.5 203 93.5 180 80.5C165 71.5 149 69.5 134 71.5C147 71.5 161 73.5 173 80.5C205 99.5 216 141.5 198 173.5C194 179.5 190 185.5 185 189.5C198 168.5 200 141.5 187 118.5C178 104.5 166 94.5 151 88.5C163 94.5 173 103.5 180 115.5C199 148.5 188 189.5 155 208.5C149 212.5 143 214.5 136 216.5C158 204.5 173 182.5 173 155.5C173 139.5 167 123.5 157 112.5C165 122.5 169 135.5 169 149.5C169 187.5 139 217.5 101 217.5C94 217.5 87 216.5 81 214.5C106 215.5 130 203.5 143 180.5C151 166.5 154 150.5 151 135.5C152 148.5 149 161.5 142 173.5C124 206.5 82 217.5 50 198.5C43 195.5 38 190.5 34 185.5C54 199.5 82 200.5 104 187.5C119 179.5 129 166.5 134 152.5C129 164.5 119 174.5 107 181.5C75 199.5 33 188.5 15 156.5C11 150.5 9 143.5 7 137.5C18 159.5 41 174.5 68 174.5C84 174.5 99 168.5 111 158.5C100 165.5 87 170.5 73 170.5C36 170.5 5 139.5 5 102.5C5 95.5 6 88.5 8 82.5C7 106.5 19 131.5 42 144.5C57 152.5 73 154.5 88 152.5C75 153.5 62 150.5 49 143.5C17 124.5 6 83.5 25 50.5C28 44.5 32 39.5 37 34.5C24 55.5 22 82.5 35 105.5C44 119.5 56 130.5 71 135.5C59 129.5 49 120.5 42 108.5C23 75.5 34 34.5 67 15.5C73 12.5 79 9.5 86 8.5C64 19.5 49 42.5 49 68.5C49 85.5 55 100.5 65 112.5C57 101.5 53 88.5 53 74.5C53 36.5 84 6.5 121 6.5C128 6.5 135 7.5 141 9.5C117 8.5 92 20.5 79 43.5C71 57.5 68 73.5 71 88.5C70 76.5 73 62.5 80 50.5C99 18.5 140 6.5 173 25.5C179 29.5 184 33.5 188 38.5C168 25.5 140 23.5 118 36.5C103 44.5 93 57.5 88 71.5C94 60.5 103 50.5 115 43.5C147 24.5 189 35.5 208 68.5C211 74.5 214 80.5 215 86.5C204 65.5 181 50.5 155 50.5C138 50.5 123 55.5 111 65.5C122 58.5 135 54.5 149 54.5C186 54.5 217 84.5 217 122.5C217 129.5 216 135.5 214 142.5Z" fill="#431973"/>
</svg>
