<svg width="554" height="433" viewBox="0 0 554 433" fill="none" xmlns="http://www.w3.org/2000/svg">
<rect x="6.36401" width="180.676" height="69.4669" fill="white"/>
<path d="M45.5535 26.2266H43.574V30.641H41.0894V18.5822H45.57C46.9945 18.5822 48.0933 18.8997 48.8663 19.5347C49.6393 20.1696 50.0258 21.0669 50.0258 22.2264C50.0258 23.0491 49.8464 23.7365 49.4875 24.2886C49.1341 24.8352 48.5958 25.2714 47.8724 25.5972L50.4813 30.525V30.641H47.8145L45.5535 26.2266ZM43.574 24.2141H45.5783C46.2022 24.2141 46.6853 24.0567 47.0277 23.742C47.37 23.4218 47.5412 22.9828 47.5412 22.4251C47.5412 21.8564 47.3783 21.4092 47.0525 21.0834C46.7323 20.7577 46.2381 20.5948 45.57 20.5948H43.574V24.2141ZM55.8895 30.8066C54.5754 30.8066 53.5043 30.4036 52.6761 29.5974C51.8534 28.7913 51.442 27.7174 51.442 26.3757V26.1438C51.442 25.2438 51.616 24.4405 51.9638 23.7337C52.3117 23.0214 52.8031 22.4748 53.438 22.0939C54.0785 21.7074 54.8073 21.5141 55.6245 21.5141C56.8503 21.5141 57.8137 21.9006 58.515 22.6736C59.2217 23.4466 59.5751 24.5426 59.5751 25.9616V26.9389H53.8687C53.946 27.5242 54.1779 27.9935 54.5644 28.3468C54.9564 28.7002 55.4506 28.8769 56.0469 28.8769C56.969 28.8769 57.6895 28.5429 58.2085 27.8748L59.3846 29.1916C59.0257 29.6996 58.5398 30.0971 57.9269 30.3842C57.3141 30.6658 56.6349 30.8066 55.8895 30.8066ZM55.6162 23.4521C55.1414 23.4521 54.7549 23.6122 54.4567 23.9325C54.1641 24.2527 53.9764 24.711 53.8935 25.3073H57.223V25.1168C57.2119 24.5868 57.0684 24.1782 56.7923 23.8911C56.5162 23.5984 56.1242 23.4521 55.6162 23.4521ZM66.1345 30.641C66.0241 30.4257 65.944 30.1579 65.8943 29.8376C65.3146 30.4836 64.5609 30.8066 63.6333 30.8066C62.7554 30.8066 62.0266 30.5526 61.4468 30.0447C60.8726 29.5367 60.5855 28.8962 60.5855 28.1232C60.5855 27.1735 60.9361 26.4447 61.6373 25.9368C62.3441 25.4288 63.3628 25.172 64.6934 25.1665H65.7949V24.653C65.7949 24.2389 65.6873 23.9076 65.4719 23.6592C65.2621 23.4107 64.9281 23.2865 64.4698 23.2865C64.0667 23.2865 63.7493 23.3831 63.5174 23.5764C63.291 23.7696 63.1778 24.0346 63.1778 24.3714H60.7843C60.7843 23.8524 60.9444 23.3721 61.2646 22.9303C61.5849 22.4886 62.0376 22.1435 62.6229 21.8951C63.2082 21.6411 63.8652 21.5141 64.594 21.5141C65.6983 21.5141 66.5735 21.7929 67.2195 22.3506C67.871 22.9027 68.1967 23.6813 68.1967 24.6862V28.5705C68.2023 29.4208 68.321 30.064 68.5529 30.5002V30.641H66.1345ZM64.1551 28.9763C64.5084 28.9763 64.8342 28.899 65.1324 28.7444C65.4305 28.5843 65.6514 28.3717 65.7949 28.1067V26.5662H64.9005C63.7023 26.5662 63.0646 26.9803 62.9873 27.8085L62.979 27.9493C62.979 28.2475 63.0839 28.4932 63.2937 28.6864C63.5036 28.8797 63.7907 28.9763 64.1551 28.9763ZM74.8887 28.1646C74.8887 27.872 74.7424 27.6429 74.4497 27.4772C74.1626 27.3061 73.6988 27.1542 73.0583 27.0217C70.9271 26.5745 69.8615 25.669 69.8615 24.3052C69.8615 23.5101 70.19 22.8475 70.847 22.3175C71.5096 21.7819 72.3737 21.5141 73.4393 21.5141C74.5767 21.5141 75.485 21.7819 76.1641 22.3175C76.8488 22.853 77.1911 23.5487 77.1911 24.4046H74.7976C74.7976 24.0622 74.6872 23.7806 74.4663 23.5598C74.2454 23.3334 73.9004 23.2202 73.431 23.2202C73.028 23.2202 72.716 23.3113 72.4952 23.4935C72.2743 23.6757 72.1639 23.9076 72.1639 24.1892C72.1639 24.4543 72.2881 24.6696 72.5366 24.8352C72.7906 24.9954 73.2157 25.1361 73.812 25.2576C74.4083 25.3736 74.9108 25.5061 75.3194 25.6552C76.5838 26.119 77.216 26.9223 77.216 28.0653C77.216 28.8824 76.8654 29.545 76.1641 30.053C75.4629 30.5554 74.5574 30.8066 73.4476 30.8066C72.6967 30.8066 72.0286 30.6741 71.4433 30.4091C70.8636 30.1385 70.4081 29.7714 70.0768 29.3076C69.7455 28.8383 69.5799 28.333 69.5799 27.7919H71.8492C71.8712 28.2171 72.0286 28.5429 72.3212 28.7692C72.6139 28.9956 73.0059 29.1088 73.4973 29.1088C73.9556 29.1088 74.3007 29.0232 74.5326 28.8521C74.77 28.6754 74.8887 28.4462 74.8887 28.1646ZM78.392 26.0775C78.392 25.1886 78.5632 24.3963 78.9055 23.7006C79.2478 23.0049 79.7392 22.4665 80.3797 22.0856C81.0257 21.7046 81.7739 21.5141 82.6242 21.5141C83.8334 21.5141 84.8189 21.884 85.5809 22.6239C86.3484 23.3638 86.7763 24.3687 86.8646 25.6386L86.8812 26.2515C86.8812 27.6263 86.4974 28.7306 85.73 29.5643C84.9625 30.3925 83.9328 30.8066 82.6407 30.8066C81.3487 30.8066 80.3162 30.3925 79.5432 29.5643C78.7758 28.7361 78.392 27.6097 78.392 26.1852V26.0775ZM80.7856 26.2515C80.7856 27.1018 80.9457 27.7533 81.2659 28.2061C81.5862 28.6533 82.0444 28.8769 82.6407 28.8769C83.2205 28.8769 83.6733 28.656 83.999 28.2143C84.3248 27.7671 84.4877 27.0548 84.4877 26.0775C84.4877 25.2438 84.3248 24.5978 83.999 24.1395C83.6733 23.6813 83.215 23.4521 82.6242 23.4521C82.0389 23.4521 81.5862 23.6813 81.2659 24.1395C80.9457 24.5923 80.7856 25.2963 80.7856 26.2515ZM90.5584 21.6797L90.633 22.715C91.2735 21.9144 92.132 21.5141 93.2087 21.5141C94.1584 21.5141 94.8651 21.7929 95.3289 22.3506C95.7927 22.9083 96.0302 23.742 96.0412 24.8518V30.641H93.6477V24.9098C93.6477 24.4018 93.5372 24.0346 93.3164 23.8083C93.0955 23.5764 92.7284 23.4604 92.2149 23.4604C91.5413 23.4604 91.036 23.7475 90.6992 24.3217V30.641H88.3057V21.6797H90.5584ZM108.497 27.4772C108.497 27.0079 108.332 26.649 108.001 26.4006C107.669 26.1466 107.073 25.8815 106.212 25.6055C105.35 25.3239 104.668 25.0478 104.166 24.7773C102.797 24.0374 102.112 23.0408 102.112 21.7874C102.112 21.1359 102.294 20.5561 102.659 20.0482C103.029 19.5347 103.556 19.1344 104.24 18.8473C104.931 18.5602 105.704 18.4166 106.559 18.4166C107.421 18.4166 108.188 18.574 108.862 18.8887C109.536 19.1979 110.057 19.6368 110.427 20.2055C110.803 20.7742 110.99 21.4202 110.99 22.1435H108.506C108.506 21.5914 108.332 21.1635 107.984 20.8598C107.636 20.5506 107.148 20.396 106.518 20.396C105.911 20.396 105.439 20.5258 105.102 20.7853C104.765 21.0393 104.597 21.3761 104.597 21.7957C104.597 22.1877 104.793 22.5162 105.185 22.7813C105.582 23.0463 106.165 23.2948 106.932 23.5267C108.346 23.9518 109.375 24.4791 110.021 25.1085C110.667 25.738 110.99 26.522 110.99 27.4607C110.99 28.5042 110.596 29.3241 109.806 29.9204C109.017 30.5112 107.954 30.8066 106.617 30.8066C105.69 30.8066 104.845 30.6382 104.083 30.3014C103.321 29.9591 102.739 29.4925 102.336 28.9017C101.938 28.311 101.739 27.6263 101.739 26.8478H104.232C104.232 28.1784 105.027 28.8438 106.617 28.8438C107.208 28.8438 107.669 28.7251 108.001 28.4876C108.332 28.2447 108.497 27.9079 108.497 27.4772ZM115.869 27.2536L117.525 21.6797H120.092L116.49 32.0324L116.291 32.5045C115.755 33.675 114.872 34.2603 113.641 34.2603C113.293 34.2603 112.939 34.2078 112.581 34.1029V32.2891L112.945 32.2974C113.398 32.2974 113.735 32.2284 113.955 32.0904C114.182 31.9523 114.358 31.7232 114.485 31.4029L114.767 30.6658L111.628 21.6797H114.204L115.869 27.2536ZM123.24 21.6797L123.314 22.715C123.955 21.9144 124.813 21.5141 125.89 21.5141C126.84 21.5141 127.546 21.7929 128.01 22.3506C128.474 22.9083 128.711 23.742 128.722 24.8518V30.641H126.329V24.9098C126.329 24.4018 126.218 24.0346 125.998 23.8083C125.777 23.5764 125.41 23.4604 124.896 23.4604C124.222 23.4604 123.717 23.7475 123.38 24.3217V30.641H120.987V21.6797H123.24ZM133.41 19.4767V21.6797H134.942V23.4356H133.41V27.9079C133.41 28.2392 133.474 28.4766 133.601 28.6202C133.728 28.7637 133.971 28.8355 134.329 28.8355C134.594 28.8355 134.829 28.8162 135.033 28.7775V30.5913C134.564 30.7349 134.081 30.8066 133.584 30.8066C131.906 30.8066 131.05 29.9591 131.017 28.264V23.4356H129.708V21.6797H131.017V19.4767H133.41ZM141.469 30.641C141.358 30.4257 141.278 30.1579 141.228 29.8376C140.649 30.4836 139.895 30.8066 138.967 30.8066C138.089 30.8066 137.361 30.5526 136.781 30.0447C136.207 29.5367 135.92 28.8962 135.92 28.1232C135.92 27.1735 136.27 26.4447 136.971 25.9368C137.678 25.4288 138.697 25.172 140.027 25.1665H141.129V24.653C141.129 24.2389 141.021 23.9076 140.806 23.6592C140.596 23.4107 140.262 23.2865 139.804 23.2865C139.401 23.2865 139.083 23.3831 138.851 23.5764C138.625 23.7696 138.512 24.0346 138.512 24.3714H136.118C136.118 23.8524 136.278 23.3721 136.599 22.9303C136.919 22.4886 137.372 22.1435 137.957 21.8951C138.542 21.6411 139.199 21.5141 139.928 21.5141C141.032 21.5141 141.908 21.7929 142.554 22.3506C143.205 22.9027 143.531 23.6813 143.531 24.6862V28.5705C143.536 29.4208 143.655 30.064 143.887 30.5002V30.641H141.469ZM139.489 28.9763C139.843 28.9763 140.168 28.899 140.466 28.7444C140.765 28.5843 140.985 28.3717 141.129 28.1067V26.5662H140.235C139.036 26.5662 138.399 26.9803 138.321 27.8085L138.313 27.9493C138.313 28.2475 138.418 28.4932 138.628 28.6864C138.838 28.8797 139.125 28.9763 139.489 28.9763ZM148.782 24.3549L150.289 21.6797H152.848L150.297 26.0693L152.956 30.641H150.388L148.79 27.8251L147.2 30.641H144.624L147.283 26.0693L144.74 21.6797H147.307L148.782 24.3549ZM65.0247 45.738C65.0247 44.4736 65.1931 43.2699 65.5299 42.127C65.8667 40.9841 66.3636 39.9736 67.0207 39.0957C67.6777 38.2123 68.39 37.5994 69.1575 37.2571L69.6213 38.5491C68.8151 39.1454 68.1857 40.0675 67.733 41.3153C67.2802 42.5632 67.0538 44.0208 67.0538 45.6883V45.945C67.0538 47.618 67.2774 49.0812 67.7247 50.3346C68.1719 51.5879 68.8041 52.5238 69.6213 53.1422L69.1575 54.4094C68.4066 54.0725 67.7053 53.4762 67.0538 52.6204C66.4078 51.7701 65.9136 50.7873 65.5713 49.672C65.229 48.5567 65.0468 47.3916 65.0247 46.1769V45.738ZM71.0044 49.4649C71.0044 49.084 71.1314 48.7748 71.3854 48.5373C71.6449 48.2999 71.9679 48.1812 72.3544 48.1812C72.7464 48.1812 73.0694 48.2999 73.3234 48.5373C73.5829 48.7748 73.7126 49.084 73.7126 49.4649C73.7126 49.8404 73.5856 50.1468 73.3317 50.3842C73.0777 50.6161 72.7519 50.7321 72.3544 50.7321C71.9623 50.7321 71.6393 50.6161 71.3854 50.3842C71.1314 50.1468 71.0044 49.8404 71.0044 49.4649ZM80.8518 43.9242C80.5261 43.88 80.2389 43.8579 79.9905 43.8579C79.085 43.8579 78.4914 44.1644 78.2098 44.7773V50.641H75.8163V41.6797H78.0773L78.1436 42.7481C78.6239 41.9255 79.2893 41.5141 80.1396 41.5141C80.4046 41.5141 80.653 41.55 80.8849 41.6218L80.8518 43.9242ZM85.9702 50.8066C84.6561 50.8066 83.5849 50.4036 82.7567 49.5974C81.934 48.7913 81.5227 47.7174 81.5227 46.3757V46.1438C81.5227 45.2438 81.6966 44.4405 82.0444 43.7337C82.3923 43.0214 82.8837 42.4748 83.5187 42.0939C84.1591 41.7074 84.888 41.5141 85.7051 41.5141C86.9309 41.5141 87.8944 41.9006 88.5956 42.6736C89.3023 43.4466 89.6557 44.5426 89.6557 45.9616V46.9389H83.9493C84.0266 47.5242 84.2585 47.9935 84.645 48.3468C85.037 48.7002 85.5312 48.8769 86.1275 48.8769C87.0496 48.8769 87.7701 48.5429 88.2891 47.8748L89.4652 49.1916C89.1063 49.6996 88.6204 50.0971 88.0076 50.3842C87.3947 50.6658 86.7155 50.8066 85.9702 50.8066ZM85.6968 43.4521C85.222 43.4521 84.8355 43.6122 84.5374 43.9325C84.2447 44.2527 84.057 44.711 83.9742 45.3073H87.3036V45.1168C87.2925 44.5868 87.149 44.1782 86.8729 43.8911C86.5968 43.5984 86.2048 43.4521 85.6968 43.4521ZM91.6434 53.664L90.3928 53.0097L90.691 52.4713C91.0609 51.7977 91.2514 51.1269 91.2624 50.4588V48.6036H93.2833L93.275 50.26C93.2695 50.8729 93.1149 51.4913 92.8112 52.1152C92.5075 52.7391 92.1182 53.2554 91.6434 53.664ZM99.5114 49.4649C99.5114 49.084 99.6384 48.7748 99.8924 48.5373C100.152 48.2999 100.475 48.1812 100.861 48.1812C101.253 48.1812 101.576 48.2999 101.83 48.5373C102.09 48.7748 102.22 49.084 102.22 49.4649C102.22 49.8404 102.093 50.1468 101.839 50.3842C101.585 50.6161 101.259 50.7321 100.861 50.7321C100.469 50.7321 100.146 50.6161 99.8924 50.3842C99.6384 50.1468 99.5114 49.8404 99.5114 49.4649ZM109.359 43.9242C109.033 43.88 108.746 43.8579 108.497 43.8579C107.592 43.8579 106.998 44.1644 106.717 44.7773V50.641H104.323V41.6797H106.584L106.651 42.7481C107.131 41.9255 107.796 41.5141 108.647 41.5141C108.912 41.5141 109.16 41.55 109.392 41.6218L109.359 43.9242ZM114.477 50.8066C113.163 50.8066 112.092 50.4036 111.264 49.5974C110.441 48.7913 110.03 47.7174 110.03 46.3757V46.1438C110.03 45.2438 110.204 44.4405 110.551 43.7337C110.899 43.0214 111.391 42.4748 112.026 42.0939C112.666 41.7074 113.395 41.5141 114.212 41.5141C115.438 41.5141 116.401 41.9006 117.103 42.6736C117.809 43.4466 118.163 44.5426 118.163 45.9616V46.9389H112.456C112.534 47.5242 112.766 47.9935 113.152 48.3468C113.544 48.7002 114.038 48.8769 114.635 48.8769C115.557 48.8769 116.277 48.5429 116.796 47.8748L117.972 49.1916C117.613 49.6996 117.127 50.0971 116.515 50.3842C115.902 50.6658 115.223 50.8066 114.477 50.8066ZM114.204 43.4521C113.729 43.4521 113.343 43.6122 113.044 43.9325C112.752 44.2527 112.564 44.711 112.481 45.3073H115.811V45.1168C115.8 44.5868 115.656 44.1782 115.38 43.8911C115.104 43.5984 114.712 43.4521 114.204 43.4521ZM122.055 50.641H119.654V41.6797H122.055V50.641ZM119.513 39.3608C119.513 39.0019 119.631 38.7065 119.869 38.4746C120.112 38.2427 120.44 38.1267 120.854 38.1267C121.263 38.1267 121.589 38.2427 121.832 38.4746C122.075 38.7065 122.196 39.0019 122.196 39.3608C122.196 39.7252 122.072 40.0233 121.823 40.2552C121.58 40.4871 121.257 40.6031 120.854 40.6031C120.451 40.6031 120.126 40.4871 119.877 40.2552C119.634 40.0233 119.513 39.7252 119.513 39.3608ZM128.159 45.9285C128.159 47.1763 127.98 48.3772 127.621 49.5312C127.262 50.6852 126.746 51.7039 126.072 52.5873C125.399 53.4707 124.678 54.0781 123.911 54.4094L123.447 53.1422C124.231 52.5514 124.849 51.6404 125.302 50.4091C125.755 49.1778 125.989 47.7616 126.006 46.1604V45.7214C126.006 44.0705 125.779 42.6156 125.327 41.3567C124.88 40.0979 124.253 39.1537 123.447 38.5243L123.911 37.2571C124.661 37.5829 125.368 38.1737 126.031 39.0295C126.699 39.8853 127.215 40.8819 127.579 42.0193C127.949 43.1567 128.143 44.3355 128.159 45.5558V45.9285Z" fill="black"/>
<rect x="372.701" width="180.676" height="69.4669" fill="white"/>
<path d="M420.247 24.8849C420.247 26.072 420.037 27.1128 419.617 28.0073C419.198 28.9017 418.596 29.5919 417.812 30.0778C417.033 30.5637 416.139 30.8066 415.128 30.8066C414.129 30.8066 413.237 30.5665 412.453 30.0861C411.669 29.6057 411.062 28.9211 410.631 28.0321C410.201 27.1377 409.982 26.1107 409.977 24.9512V24.3549C409.977 23.1678 410.19 22.1242 410.615 21.2242C411.045 20.3187 411.65 19.6258 412.428 19.1454C413.213 18.6595 414.107 18.4166 415.112 18.4166C416.117 18.4166 417.008 18.6595 417.787 19.1454C418.571 19.6258 419.176 20.3187 419.601 21.2242C420.031 22.1242 420.247 23.165 420.247 24.3466V24.8849ZM417.729 24.3383C417.729 23.0739 417.503 22.1132 417.05 21.4561C416.597 20.7991 415.951 20.4706 415.112 20.4706C414.278 20.4706 413.635 20.7963 413.182 21.4478C412.729 22.0939 412.5 23.0435 412.495 24.2969V24.8849C412.495 26.1162 412.721 27.0714 413.174 27.7505C413.627 28.4297 414.278 28.7692 415.128 28.7692C415.962 28.7692 416.603 28.4435 417.05 27.7919C417.497 27.1349 417.723 26.1797 417.729 24.9263V24.3383ZM431.519 26.6242C431.425 27.9217 430.945 28.9432 430.078 29.6885C429.216 30.4339 428.079 30.8066 426.665 30.8066C425.119 30.8066 423.902 30.2876 423.013 29.2496C422.13 28.2061 421.688 26.776 421.688 24.9595V24.2224C421.688 23.0629 421.892 22.0414 422.301 21.158C422.709 20.2746 423.292 19.5982 424.048 19.1289C424.81 18.654 425.694 18.4166 426.699 18.4166C428.09 18.4166 429.211 18.7893 430.061 19.5347C430.911 20.2801 431.403 21.3264 431.535 22.6736H429.051C428.99 21.8951 428.772 21.3319 428.396 20.9841C428.026 20.6307 427.46 20.454 426.699 20.454C425.87 20.454 425.249 20.7522 424.835 21.3485C424.426 21.9393 424.217 22.8586 424.206 24.1064V25.0174C424.206 26.3205 424.402 27.2729 424.794 27.8748C425.191 28.4766 425.815 28.7775 426.665 28.7775C427.433 28.7775 428.004 28.6036 428.38 28.2557C428.761 27.9024 428.979 27.3585 429.034 26.6242H431.519ZM438.186 30.641C438.075 30.4257 437.995 30.1579 437.946 29.8376C437.366 30.4836 436.612 30.8066 435.685 30.8066C434.807 30.8066 434.078 30.5526 433.498 30.0447C432.924 29.5367 432.637 28.8962 432.637 28.1232C432.637 27.1735 432.987 26.4447 433.689 25.9368C434.395 25.4288 435.414 25.172 436.745 25.1665H437.846V24.653C437.846 24.2389 437.739 23.9076 437.523 23.6592C437.313 23.4107 436.979 23.2865 436.521 23.2865C436.118 23.2865 435.801 23.3831 435.569 23.5764C435.342 23.7696 435.229 24.0346 435.229 24.3714H432.836C432.836 23.8524 432.996 23.3721 433.316 22.9303C433.636 22.4886 434.089 22.1435 434.674 21.8951C435.259 21.6411 435.917 21.5141 436.645 21.5141C437.75 21.5141 438.625 21.7929 439.271 22.3506C439.922 22.9027 440.248 23.6813 440.248 24.6862V28.5705C440.254 29.4208 440.372 30.064 440.604 30.5002V30.641H438.186ZM436.206 28.9763C436.56 28.9763 436.886 28.899 437.184 28.7444C437.482 28.5843 437.703 28.3717 437.846 28.1067V26.5662H436.952C435.754 26.5662 435.116 26.9803 435.039 27.8085L435.03 27.9493C435.03 28.2475 435.135 28.4932 435.345 28.6864C435.555 28.8797 435.842 28.9763 436.206 28.9763ZM444.331 21.6797L444.406 22.6819C445.041 21.9034 445.899 21.5141 446.981 21.5141C448.135 21.5141 448.928 21.9696 449.358 22.8807C449.988 21.9696 450.885 21.5141 452.05 21.5141C453.022 21.5141 453.745 21.7985 454.22 22.3672C454.695 22.9303 454.932 23.7806 454.932 24.9181V30.641H452.53V24.9263C452.53 24.4184 452.431 24.0484 452.232 23.8165C452.034 23.5791 451.683 23.4604 451.18 23.4604C450.463 23.4604 449.966 23.8027 449.69 24.4874L449.698 30.641H447.304V24.9346C447.304 24.4156 447.202 24.0401 446.998 23.8083C446.794 23.5764 446.446 23.4604 445.954 23.4604C445.275 23.4604 444.784 23.742 444.48 24.3052V30.641H442.087V21.6797H444.331ZM459.305 30.641H456.903V17.9197H459.305V30.641ZM471.919 27.4772C471.919 27.0079 471.753 26.649 471.422 26.4006C471.091 26.1466 470.494 25.8815 469.633 25.6055C468.772 25.3239 468.09 25.0478 467.587 24.7773C466.218 24.0374 465.533 23.0408 465.533 21.7874C465.533 21.1359 465.716 20.5561 466.08 20.0482C466.45 19.5347 466.977 19.1344 467.662 18.8473C468.352 18.5602 469.125 18.4166 469.981 18.4166C470.842 18.4166 471.61 18.574 472.283 18.8887C472.957 19.1979 473.479 19.6368 473.849 20.2055C474.224 20.7742 474.412 21.4202 474.412 22.1435H471.927C471.927 21.5914 471.753 21.1635 471.405 20.8598C471.058 20.5506 470.569 20.396 469.939 20.396C469.332 20.396 468.86 20.5258 468.523 20.7853C468.186 21.0393 468.018 21.3761 468.018 21.7957C468.018 22.1877 468.214 22.5162 468.606 22.7813C469.004 23.0463 469.586 23.2948 470.354 23.5267C471.767 23.9518 472.797 24.4791 473.443 25.1085C474.089 25.738 474.412 26.522 474.412 27.4607C474.412 28.5042 474.017 29.3241 473.227 29.9204C472.438 30.5112 471.375 30.8066 470.039 30.8066C469.111 30.8066 468.266 30.6382 467.504 30.3014C466.743 29.9591 466.16 29.4925 465.757 28.9017C465.359 28.311 465.161 27.6263 465.161 26.8478H467.654C467.654 28.1784 468.449 28.8438 470.039 28.8438C470.63 28.8438 471.091 28.7251 471.422 28.4876C471.753 28.2447 471.919 27.9079 471.919 27.4772ZM479.29 27.2536L480.946 21.6797H483.514L479.911 32.0324L479.712 32.5045C479.177 33.675 478.293 34.2603 477.062 34.2603C476.714 34.2603 476.361 34.2078 476.002 34.1029V32.2891L476.366 32.2974C476.819 32.2974 477.156 32.2284 477.377 32.0904C477.603 31.9523 477.78 31.7232 477.907 31.4029L478.188 30.6658L475.05 21.6797H477.625L479.29 27.2536ZM486.661 21.6797L486.736 22.715C487.376 21.9144 488.235 21.5141 489.311 21.5141C490.261 21.5141 490.968 21.7929 491.432 22.3506C491.895 22.9083 492.133 23.742 492.144 24.8518V30.641H489.75V24.9098C489.75 24.4018 489.64 24.0346 489.419 23.8083C489.198 23.5764 488.831 23.4604 488.317 23.4604C487.644 23.4604 487.139 23.7475 486.802 24.3217V30.641H484.408V21.6797H486.661ZM496.831 19.4767V21.6797H498.364V23.4356H496.831V27.9079C496.831 28.2392 496.895 28.4766 497.022 28.6202C497.149 28.7637 497.392 28.8355 497.751 28.8355C498.016 28.8355 498.25 28.8162 498.455 28.7775V30.5913C497.985 30.7349 497.502 30.8066 497.005 30.8066C495.327 30.8066 494.471 29.9591 494.438 28.264V23.4356H493.129V21.6797H494.438V19.4767H496.831ZM504.89 30.641C504.78 30.4257 504.699 30.1579 504.65 29.8376C504.07 30.4836 503.316 30.8066 502.389 30.8066C501.511 30.8066 500.782 30.5526 500.202 30.0447C499.628 29.5367 499.341 28.8962 499.341 28.1232C499.341 27.1735 499.692 26.4447 500.393 25.9368C501.099 25.4288 502.118 25.172 503.449 25.1665H504.55V24.653C504.55 24.2389 504.443 23.9076 504.227 23.6592C504.018 23.4107 503.684 23.2865 503.225 23.2865C502.822 23.2865 502.505 23.3831 502.273 23.5764C502.046 23.7696 501.933 24.0346 501.933 24.3714H499.54C499.54 23.8524 499.7 23.3721 500.02 22.9303C500.34 22.4886 500.793 22.1435 501.378 21.8951C501.964 21.6411 502.621 21.5141 503.349 21.5141C504.454 21.5141 505.329 21.7929 505.975 22.3506C506.626 22.9027 506.952 23.6813 506.952 24.6862V28.5705C506.958 29.4208 507.076 30.064 507.308 30.5002V30.641H504.89ZM502.911 28.9763C503.264 28.9763 503.59 28.899 503.888 28.7444C504.186 28.5843 504.407 28.3717 504.55 28.1067V26.5662H503.656C502.458 26.5662 501.82 26.9803 501.743 27.8085L501.734 27.9493C501.734 28.2475 501.839 28.4932 502.049 28.6864C502.259 28.8797 502.546 28.9763 502.911 28.9763ZM512.203 24.3549L513.71 21.6797H516.27L513.719 26.0693L516.377 30.641H513.81L512.211 27.8251L510.621 30.641H508.045L510.704 26.0693L508.161 21.6797H510.729L512.203 24.3549ZM427.369 45.738C427.369 44.4736 427.538 43.2699 427.875 42.127C428.211 40.9841 428.708 39.9736 429.365 39.0957C430.022 38.2123 430.735 37.5994 431.502 37.2571L431.966 38.5491C431.16 39.1454 430.53 40.0675 430.078 41.3153C429.625 42.5632 429.399 44.0208 429.399 45.6883V45.945C429.399 47.618 429.622 49.0812 430.069 50.3346C430.517 51.5879 431.149 52.5238 431.966 53.1422L431.502 54.4094C430.751 54.0725 430.05 53.4762 429.399 52.6204C428.753 51.7701 428.258 50.7873 427.916 49.672C427.574 48.5567 427.391 47.3916 427.369 46.1769V45.738ZM433.349 49.4649C433.349 49.084 433.476 48.7748 433.73 48.5373C433.99 48.2999 434.313 48.1812 434.699 48.1812C435.091 48.1812 435.414 48.2999 435.668 48.5373C435.928 48.7748 436.057 49.084 436.057 49.4649C436.057 49.8404 435.93 50.1468 435.676 50.3842C435.422 50.6161 435.097 50.7321 434.699 50.7321C434.307 50.7321 433.984 50.6161 433.73 50.3842C433.476 50.1468 433.349 49.8404 433.349 49.4649ZM440.405 41.6797L440.48 42.6819C441.115 41.9034 441.974 41.5141 443.056 41.5141C444.21 41.5141 445.002 41.9696 445.433 42.8807C446.062 41.9696 446.959 41.5141 448.124 41.5141C449.096 41.5141 449.819 41.7985 450.294 42.3672C450.769 42.9303 451.007 43.7806 451.007 44.9181V50.641H448.605V44.9263C448.605 44.4184 448.505 44.0484 448.307 43.8165C448.108 43.5791 447.757 43.4604 447.255 43.4604C446.537 43.4604 446.04 43.8027 445.764 44.4874L445.772 50.641H443.379V44.9346C443.379 44.4156 443.277 44.0401 443.072 43.8083C442.868 43.5764 442.52 43.4604 442.029 43.4604C441.35 43.4604 440.858 43.742 440.555 44.3052V50.641H438.161V41.6797H440.405ZM455.379 50.641H452.978V37.9197H455.379V50.641ZM457.98 53.664L456.729 53.0097L457.028 52.4713C457.398 51.7977 457.588 51.1269 457.599 50.4588V48.6036H459.62L459.612 50.26C459.606 50.8729 459.452 51.4913 459.148 52.1152C458.844 52.7391 458.455 53.2554 457.98 53.664ZM465.848 49.4649C465.848 49.084 465.975 48.7748 466.229 48.5373C466.489 48.2999 466.812 48.1812 467.198 48.1812C467.59 48.1812 467.913 48.2999 468.167 48.5373C468.427 48.7748 468.556 49.084 468.556 49.4649C468.556 49.8404 468.429 50.1468 468.175 50.3842C467.921 50.6161 467.596 50.7321 467.198 50.7321C466.806 50.7321 466.483 50.6161 466.229 50.3842C465.975 50.1468 465.848 49.8404 465.848 49.4649ZM472.904 41.6797L472.979 42.6819C473.614 41.9034 474.473 41.5141 475.555 41.5141C476.709 41.5141 477.501 41.9696 477.932 42.8807C478.561 41.9696 479.458 41.5141 480.623 41.5141C481.595 41.5141 482.318 41.7985 482.793 42.3672C483.268 42.9303 483.506 43.7806 483.506 44.9181V50.641H481.104V44.9263C481.104 44.4184 481.004 44.0484 480.806 43.8165C480.607 43.5791 480.256 43.4604 479.754 43.4604C479.036 43.4604 478.539 43.8027 478.263 44.4874L478.271 50.641H475.878V44.9346C475.878 44.4156 475.776 44.0401 475.571 43.8083C475.367 43.5764 475.019 43.4604 474.528 43.4604C473.849 43.4604 473.357 43.742 473.054 44.3052V50.641H470.66V41.6797H472.904ZM487.878 50.641H485.477V37.9197H487.878V50.641ZM492.384 50.641H489.982V41.6797H492.384V50.641ZM489.841 39.3608C489.841 39.0019 489.96 38.7065 490.197 38.4746C490.44 38.2427 490.769 38.1267 491.183 38.1267C491.592 38.1267 491.917 38.2427 492.16 38.4746C492.403 38.7065 492.525 39.0019 492.525 39.3608C492.525 39.7252 492.401 40.0233 492.152 40.2552C491.909 40.4871 491.586 40.6031 491.183 40.6031C490.78 40.6031 490.454 40.4871 490.206 40.2552C489.963 40.0233 489.841 39.7252 489.841 39.3608ZM498.488 45.9285C498.488 47.1763 498.308 48.3772 497.95 49.5312C497.591 50.6852 497.074 51.7039 496.401 52.5873C495.727 53.4707 495.007 54.0781 494.239 54.4094L493.775 53.1422C494.559 52.5514 495.178 51.6404 495.631 50.4091C496.083 49.1778 496.318 47.7616 496.335 46.1604V45.7214C496.335 44.0705 496.108 42.6156 495.655 41.3567C495.208 40.0979 494.581 39.1537 493.775 38.5243L494.239 37.2571C494.99 37.5829 495.697 38.1737 496.359 39.0295C497.027 39.8853 497.544 40.8819 497.908 42.0193C498.278 43.1567 498.471 44.3355 498.488 45.5558V45.9285Z" fill="black"/>
<rect x="187.04" y="184.103" width="180.676" height="69.4669" fill="white"/>
<path d="M244.368 218.333C244.368 219.52 244.158 220.561 243.738 221.456C243.318 222.35 242.717 223.04 241.933 223.526C241.154 224.012 240.26 224.255 239.249 224.255C238.25 224.255 237.358 224.015 236.574 223.534C235.79 223.054 235.183 222.369 234.752 221.48C234.321 220.586 234.103 219.559 234.098 218.399V217.803C234.098 216.616 234.31 215.572 234.735 214.672C235.166 213.767 235.771 213.074 236.549 212.594C237.333 212.108 238.228 211.865 239.233 211.865C240.238 211.865 241.129 212.108 241.908 212.594C242.692 213.074 243.296 213.767 243.722 214.672C244.152 215.572 244.368 216.613 244.368 217.795V218.333ZM241.85 217.787C241.85 216.522 241.623 215.561 241.171 214.904C240.718 214.247 240.072 213.919 239.233 213.919C238.399 213.919 237.756 214.245 237.303 214.896C236.85 215.542 236.621 216.492 236.615 217.745V218.333C236.615 219.564 236.842 220.52 237.295 221.199C237.747 221.878 238.399 222.217 239.249 222.217C240.083 222.217 240.723 221.892 241.171 221.24C241.618 220.583 241.844 219.628 241.85 218.375V217.787ZM255.64 220.072C255.546 221.37 255.065 222.391 254.198 223.137C253.337 223.882 252.2 224.255 250.786 224.255C249.24 224.255 248.023 223.736 247.134 222.698C246.25 221.654 245.809 220.224 245.809 218.408V217.671C245.809 216.511 246.013 215.49 246.422 214.606C246.83 213.723 247.413 213.046 248.169 212.577C248.931 212.102 249.814 211.865 250.819 211.865C252.211 211.865 253.332 212.238 254.182 212.983C255.032 213.728 255.524 214.775 255.656 216.122H253.171C253.111 215.343 252.893 214.78 252.517 214.432C252.147 214.079 251.581 213.902 250.819 213.902C249.991 213.902 249.37 214.2 248.956 214.797C248.547 215.387 248.337 216.307 248.326 217.555V218.466C248.326 219.769 248.522 220.721 248.914 221.323C249.312 221.925 249.936 222.226 250.786 222.226C251.554 222.226 252.125 222.052 252.501 221.704C252.882 221.351 253.1 220.807 253.155 220.072H255.64ZM262.307 224.089C262.196 223.874 262.116 223.606 262.066 223.286C261.487 223.932 260.733 224.255 259.805 224.255C258.928 224.255 258.199 224.001 257.619 223.493C257.045 222.985 256.758 222.344 256.758 221.571C256.758 220.622 257.108 219.893 257.809 219.385C258.516 218.877 259.535 218.62 260.866 218.615H261.967V218.101C261.967 217.687 261.859 217.356 261.644 217.107C261.434 216.859 261.1 216.735 260.642 216.735C260.239 216.735 259.921 216.831 259.689 217.025C259.463 217.218 259.35 217.483 259.35 217.82H256.956C256.956 217.301 257.116 216.82 257.437 216.379C257.757 215.937 258.21 215.592 258.795 215.343C259.38 215.089 260.037 214.962 260.766 214.962C261.87 214.962 262.746 215.241 263.392 215.799C264.043 216.351 264.369 217.13 264.369 218.134V222.019C264.374 222.869 264.493 223.512 264.725 223.948V224.089H262.307ZM260.327 222.425C260.681 222.425 261.006 222.347 261.304 222.193C261.603 222.033 261.823 221.82 261.967 221.555V220.014H261.073C259.874 220.014 259.237 220.429 259.159 221.257L259.151 221.398C259.151 221.696 259.256 221.941 259.466 222.135C259.676 222.328 259.963 222.425 260.327 222.425ZM268.452 215.128L268.526 216.13C269.161 215.352 270.02 214.962 271.102 214.962C272.256 214.962 273.048 215.418 273.479 216.329C274.109 215.418 275.006 214.962 276.171 214.962C277.143 214.962 277.866 215.247 278.341 215.815C278.816 216.379 279.053 217.229 279.053 218.366V224.089H276.651V218.375C276.651 217.867 276.552 217.497 276.353 217.265C276.154 217.027 275.804 216.909 275.301 216.909C274.583 216.909 274.087 217.251 273.81 217.936L273.819 224.089H271.425V218.383C271.425 217.864 271.323 217.488 271.119 217.256C270.914 217.025 270.567 216.909 270.075 216.909C269.396 216.909 268.905 217.19 268.601 217.753V224.089H266.207V215.128H268.452ZM283.426 224.089H281.024V211.368H283.426V224.089ZM296.595 221.605H292.238L291.41 224.089H288.768L293.257 212.03H295.559L300.073 224.089H297.431L296.595 221.605ZM292.909 219.592H295.924L294.408 215.078L292.909 219.592ZM307.452 220.925C307.452 220.456 307.287 220.097 306.955 219.849C306.624 219.595 306.028 219.33 305.167 219.054C304.305 218.772 303.623 218.496 303.121 218.225C301.752 217.486 301.067 216.489 301.067 215.236C301.067 214.584 301.249 214.004 301.613 213.496C301.983 212.983 302.511 212.583 303.195 212.296C303.886 212.008 304.659 211.865 305.514 211.865C306.376 211.865 307.143 212.022 307.817 212.337C308.49 212.646 309.012 213.085 309.382 213.654C309.758 214.222 309.945 214.868 309.945 215.592H307.461C307.461 215.04 307.287 214.612 306.939 214.308C306.591 213.999 306.102 213.844 305.473 213.844C304.866 213.844 304.394 213.974 304.057 214.234C303.72 214.488 303.552 214.824 303.552 215.244C303.552 215.636 303.748 215.964 304.14 216.23C304.537 216.495 305.12 216.743 305.887 216.975C307.301 217.4 308.33 217.927 308.976 218.557C309.622 219.186 309.945 219.97 309.945 220.909C309.945 221.952 309.551 222.772 308.761 223.369C307.971 223.959 306.909 224.255 305.572 224.255C304.645 224.255 303.8 224.086 303.038 223.75C302.276 223.407 301.694 222.941 301.29 222.35C300.893 221.759 300.694 221.075 300.694 220.296H303.187C303.187 221.627 303.982 222.292 305.572 222.292C306.163 222.292 306.624 222.173 306.955 221.936C307.287 221.693 307.452 221.356 307.452 220.925ZM320.712 214.043H317.018V224.089H314.534V214.043H310.889V212.03H320.712V214.043Z" fill="black"/>
<rect x="0.756836" y="362.91" width="180.676" height="69.4669" fill="white"/>
<path d="M56.3034 407.881V395.822H60.5273C61.9905 395.822 63.1003 396.103 63.8567 396.667C64.6132 397.224 64.9914 398.044 64.9914 399.126C64.9914 399.717 64.8395 400.239 64.5359 400.692C64.2322 401.139 63.8098 401.467 63.2687 401.677C63.8871 401.832 64.373 402.144 64.7264 402.613C65.0852 403.082 65.2647 403.657 65.2647 404.336C65.2647 405.495 64.8948 406.373 64.1549 406.97C63.415 407.566 62.3604 407.87 60.9911 407.881H56.3034ZM58.7881 402.63V405.885H60.9166C61.5019 405.885 61.9574 405.747 62.2831 405.47C62.6144 405.189 62.7801 404.802 62.7801 404.311C62.7801 403.207 62.2086 402.646 61.0657 402.63H58.7881ZM58.7881 400.874H60.6267C61.8801 400.852 62.5067 400.352 62.5067 399.375C62.5067 398.828 62.3466 398.436 62.0264 398.199C61.7117 397.956 61.212 397.834 60.5273 397.834H58.7881V400.874ZM70.3251 404.493L71.9815 398.919H74.5489L70.9462 409.272L70.7474 409.744C70.2119 410.915 69.3284 411.5 68.0972 411.5C67.7493 411.5 67.396 411.447 67.0371 411.342V409.529L67.4015 409.537C67.8542 409.537 68.191 409.468 68.4119 409.33C68.6383 409.192 68.815 408.963 68.9419 408.643L69.2235 407.905L66.0846 398.919H68.6604L70.3251 404.493ZM78.3587 396.716V398.919H79.8909V400.675H78.3587V405.147C78.3587 405.479 78.4222 405.716 78.5492 405.86C78.6762 406.003 78.9191 406.075 79.278 406.075C79.543 406.075 79.7777 406.056 79.982 406.017V407.831C79.5127 407.974 79.0296 408.046 78.5326 408.046C76.8541 408.046 75.9983 407.199 75.9652 405.504V400.675H74.6566V398.919H75.9652V396.716H78.3587ZM85.3488 408.046C84.0347 408.046 82.9636 407.643 82.1353 406.837C81.3127 406.031 80.9013 404.957 80.9013 403.615V403.383C80.9013 402.483 81.0752 401.68 81.4231 400.973C81.7709 400.261 82.2623 399.714 82.8973 399.333C83.5378 398.947 84.2666 398.754 85.0838 398.754C86.3095 398.754 87.273 399.14 87.9742 399.913C88.681 400.686 89.0343 401.782 89.0343 403.201V404.178H83.328C83.4053 404.764 83.6372 405.233 84.0237 405.586C84.4157 405.94 84.9099 406.116 85.5062 406.116C86.4282 406.116 87.1488 405.782 87.6678 405.114L88.8439 406.431C88.485 406.939 87.9991 407.337 87.3862 407.624C86.7733 407.905 86.0942 408.046 85.3488 408.046ZM85.0755 400.692C84.6007 400.692 84.2142 400.852 83.916 401.172C83.6234 401.492 83.4356 401.951 83.3528 402.547H86.6822V402.356C86.6712 401.826 86.5276 401.418 86.2516 401.131C85.9755 400.838 85.5835 400.692 85.0755 400.692ZM94.1278 406.116C94.5696 406.116 94.9284 405.995 95.2045 405.752C95.4806 405.509 95.6241 405.186 95.6352 404.783H97.8796C97.8741 405.39 97.7085 405.948 97.3827 406.456C97.0569 406.958 96.6097 407.35 96.041 407.632C95.4778 407.908 94.8539 408.046 94.1693 408.046C92.8883 408.046 91.8779 407.64 91.138 406.829C90.3981 406.012 90.0282 404.885 90.0282 403.45V403.292C90.0282 401.912 90.3954 400.81 91.1297 399.988C91.8641 399.165 92.8717 398.754 94.1527 398.754C95.2735 398.754 96.1708 399.074 96.8444 399.714C97.5235 400.349 97.8686 401.197 97.8796 402.257H95.6352C95.6241 401.793 95.4806 401.418 95.2045 401.131C94.9284 400.838 94.564 400.692 94.1113 400.692C93.5536 400.692 93.1312 400.896 92.8441 401.305C92.5625 401.708 92.4217 402.365 92.4217 403.276V403.524C92.4217 404.446 92.5625 405.109 92.8441 405.512C93.1257 405.915 93.5536 406.116 94.1278 406.116ZM98.8735 403.317C98.8735 402.428 99.0447 401.636 99.387 400.94C99.7293 400.244 100.221 399.706 100.861 399.325C101.507 398.944 102.255 398.754 103.106 398.754C104.315 398.754 105.3 399.124 106.062 399.863C106.83 400.603 107.258 401.608 107.346 402.878L107.363 403.491C107.363 404.866 106.979 405.97 106.211 406.804C105.444 407.632 104.414 408.046 103.122 408.046C101.83 408.046 100.798 407.632 100.025 406.804C99.2572 405.976 98.8735 404.849 98.8735 403.425V403.317ZM101.267 403.491C101.267 404.341 101.427 404.993 101.747 405.446C102.068 405.893 102.526 406.116 103.122 406.116C103.702 406.116 104.155 405.896 104.48 405.454C104.806 405.007 104.969 404.294 104.969 403.317C104.969 402.483 104.806 401.837 104.48 401.379C104.155 400.921 103.696 400.692 103.106 400.692C102.52 400.692 102.068 400.921 101.747 401.379C101.427 401.832 101.267 402.536 101.267 403.491ZM108.464 403.334C108.464 401.937 108.776 400.824 109.4 399.996C110.029 399.168 110.888 398.754 111.976 398.754C112.848 398.754 113.569 399.079 114.137 399.731V395.159H116.539V407.881H114.378L114.262 406.928C113.665 407.674 112.898 408.046 111.959 408.046C110.905 408.046 110.057 407.632 109.417 406.804C108.782 405.97 108.464 404.813 108.464 403.334ZM110.858 403.508C110.858 404.347 111.004 404.99 111.297 405.437C111.589 405.885 112.014 406.108 112.572 406.108C113.312 406.108 113.834 405.796 114.137 405.172V401.636C113.839 401.012 113.323 400.7 112.589 400.7C111.435 400.7 110.858 401.636 110.858 403.508ZM122.519 408.046C121.205 408.046 120.134 407.643 119.305 406.837C118.483 406.031 118.071 404.957 118.071 403.615V403.383C118.071 402.483 118.245 401.68 118.593 400.973C118.941 400.261 119.432 399.714 120.067 399.333C120.708 398.947 121.437 398.754 122.254 398.754C123.48 398.754 124.443 399.14 125.144 399.913C125.851 400.686 126.204 401.782 126.204 403.201V404.178H120.498C120.575 404.764 120.807 405.233 121.194 405.586C121.586 405.94 122.08 406.116 122.676 406.116C123.598 406.116 124.319 405.782 124.838 405.114L126.014 406.431C125.655 406.939 125.169 407.337 124.556 407.624C123.943 407.905 123.264 408.046 122.519 408.046ZM122.246 400.692C121.771 400.692 121.384 400.852 121.086 401.172C120.793 401.492 120.606 401.951 120.523 402.547H123.852V402.356C123.841 401.826 123.698 401.418 123.422 401.131C123.146 400.838 122.754 400.692 122.246 400.692Z" fill="black"/>
<rect x="187.04" y="363.533" width="180.676" height="69.4669" fill="white"/>
<path d="M242.935 404.142H240.45L235.613 396.208V404.142H233.129V392.084H235.613L240.458 400.035V392.084H242.935V404.142ZM250.14 404.142C250.03 403.927 249.95 403.659 249.9 403.339C249.32 403.985 248.567 404.308 247.639 404.308C246.761 404.308 246.032 404.054 245.453 403.546C244.878 403.038 244.591 402.398 244.591 401.625C244.591 400.675 244.942 399.946 245.643 399.438C246.35 398.93 247.368 398.674 248.699 398.668H249.801V398.154C249.801 397.74 249.693 397.409 249.478 397.161C249.268 396.912 248.934 396.788 248.475 396.788C248.072 396.788 247.755 396.885 247.523 397.078C247.297 397.271 247.183 397.536 247.183 397.873H244.79C244.79 397.354 244.95 396.874 245.27 396.432C245.591 395.99 246.043 395.645 246.629 395.397C247.214 395.143 247.871 395.016 248.6 395.016C249.704 395.016 250.579 395.294 251.225 395.852C251.877 396.404 252.202 397.183 252.202 398.188V402.072C252.208 402.922 252.327 403.565 252.559 404.002V404.142H250.14ZM248.161 402.478C248.514 402.478 248.84 402.4 249.138 402.246C249.436 402.086 249.657 401.873 249.801 401.608V400.068H248.906C247.708 400.068 247.07 400.482 246.993 401.31L246.985 401.451C246.985 401.749 247.09 401.995 247.299 402.188C247.509 402.381 247.796 402.478 248.161 402.478ZM256.907 392.978V395.181H258.439V396.937H256.907V401.409C256.907 401.741 256.97 401.978 257.097 402.122C257.224 402.265 257.467 402.337 257.826 402.337C258.091 402.337 258.326 402.318 258.53 402.279V404.093C258.061 404.236 257.578 404.308 257.081 404.308C255.402 404.308 254.546 403.461 254.513 401.765V396.937H253.205V395.181H254.513V392.978H256.907ZM262.298 404.142H259.897V395.181H262.298V404.142ZM259.756 392.862C259.756 392.503 259.874 392.208 260.112 391.976C260.355 391.744 260.683 391.628 261.097 391.628C261.506 391.628 261.832 391.744 262.075 391.976C262.318 392.208 262.439 392.503 262.439 392.862C262.439 393.227 262.315 393.525 262.066 393.757C261.823 393.989 261.5 394.105 261.097 394.105C260.694 394.105 260.369 393.989 260.12 393.757C259.877 393.525 259.756 393.227 259.756 392.862ZM267.632 401.219L269.297 395.181H271.798L268.775 404.142H266.489L263.466 395.181H265.967L267.632 401.219ZM276.867 404.308C275.552 404.308 274.481 403.905 273.653 403.099C272.83 402.293 272.419 401.219 272.419 399.877V399.645C272.419 398.745 272.593 397.942 272.941 397.235C273.289 396.523 273.78 395.976 274.415 395.595C275.056 395.209 275.784 395.016 276.602 395.016C277.827 395.016 278.791 395.402 279.492 396.175C280.199 396.948 280.552 398.044 280.552 399.463V400.44H274.846C274.923 401.026 275.155 401.495 275.541 401.848C275.933 402.202 276.428 402.378 277.024 402.378C277.946 402.378 278.667 402.044 279.186 401.376L280.362 402.693C280.003 403.201 279.517 403.599 278.904 403.886C278.291 404.167 277.612 404.308 276.867 404.308ZM276.593 396.954C276.118 396.954 275.732 397.114 275.434 397.434C275.141 397.754 274.953 398.212 274.871 398.809H278.2V398.618C278.189 398.088 278.045 397.68 277.769 397.393C277.493 397.1 277.101 396.954 276.593 396.954ZM289.869 402.378C290.311 402.378 290.67 402.257 290.946 402.014C291.222 401.771 291.366 401.448 291.377 401.045H293.621C293.616 401.652 293.45 402.21 293.124 402.718C292.799 403.22 292.351 403.612 291.783 403.894C291.219 404.17 290.596 404.308 289.911 404.308C288.63 404.308 287.619 403.902 286.88 403.091C286.14 402.273 285.77 401.147 285.77 399.712V399.554C285.77 398.174 286.137 397.072 286.871 396.25C287.606 395.427 288.613 395.016 289.894 395.016C291.015 395.016 291.912 395.336 292.586 395.976C293.265 396.611 293.61 397.459 293.621 398.519H291.377C291.366 398.055 291.222 397.68 290.946 397.393C290.67 397.1 290.306 396.954 289.853 396.954C289.295 396.954 288.873 397.158 288.586 397.566C288.304 397.97 288.163 398.627 288.163 399.538V399.786C288.163 400.708 288.304 401.371 288.586 401.774C288.867 402.177 289.295 402.378 289.869 402.378ZM294.615 399.579C294.615 398.69 294.786 397.898 295.129 397.202C295.471 396.506 295.962 395.968 296.603 395.587C297.249 395.206 297.997 395.016 298.847 395.016C300.056 395.016 301.042 395.386 301.804 396.125C302.571 396.865 302.999 397.87 303.088 399.14L303.104 399.753C303.104 401.128 302.721 402.232 301.953 403.066C301.186 403.894 300.156 404.308 298.864 404.308C297.572 404.308 296.539 403.894 295.766 403.066C294.999 402.238 294.615 401.111 294.615 399.687V399.579ZM297.009 399.753C297.009 400.603 297.169 401.255 297.489 401.708C297.809 402.155 298.268 402.378 298.864 402.378C299.444 402.378 299.896 402.158 300.222 401.716C300.548 401.269 300.711 400.556 300.711 399.579C300.711 398.745 300.548 398.099 300.222 397.641C299.896 397.183 299.438 396.954 298.847 396.954C298.262 396.954 297.809 397.183 297.489 397.641C297.169 398.094 297.009 398.798 297.009 399.753ZM304.206 399.596C304.206 398.199 304.518 397.086 305.142 396.258C305.771 395.43 306.63 395.016 307.717 395.016C308.59 395.016 309.31 395.341 309.879 395.993V391.421H312.281V404.142H310.119L310.003 403.19C309.407 403.935 308.639 404.308 307.701 404.308C306.646 404.308 305.799 403.894 305.158 403.066C304.523 402.232 304.206 401.075 304.206 399.596ZM306.599 399.77C306.599 400.609 306.746 401.252 307.038 401.699C307.331 402.146 307.756 402.37 308.314 402.37C309.054 402.37 309.575 402.058 309.879 401.434V397.898C309.581 397.274 309.065 396.962 308.33 396.962C307.176 396.962 306.599 397.898 306.599 399.77ZM318.261 404.308C316.946 404.308 315.875 403.905 315.047 403.099C314.224 402.293 313.813 401.219 313.813 399.877V399.645C313.813 398.745 313.987 397.942 314.335 397.235C314.683 396.523 315.174 395.976 315.809 395.595C316.45 395.209 317.178 395.016 317.996 395.016C319.221 395.016 320.185 395.402 320.886 396.175C321.593 396.948 321.946 398.044 321.946 399.463V400.44H316.24C316.317 401.026 316.549 401.495 316.935 401.848C317.327 402.202 317.822 402.378 318.418 402.378C319.34 402.378 320.061 402.044 320.58 401.376L321.756 402.693C321.397 403.201 320.911 403.599 320.298 403.886C319.685 404.167 319.006 404.308 318.261 404.308ZM317.987 396.954C317.512 396.954 317.126 397.114 316.828 397.434C316.535 397.754 316.347 398.212 316.265 398.809H319.594V398.618C319.583 398.088 319.439 397.68 319.163 397.393C318.887 397.1 318.495 396.954 317.987 396.954Z" fill="black"/>
<rect x="373.324" y="363.222" width="180.676" height="69.4669" fill="white"/>
<path d="M428.821 390.838H431.305V399.186C431.305 399.954 431.134 400.633 430.792 401.223C430.455 401.809 429.977 402.261 429.359 402.582C428.741 402.902 428.042 403.062 427.264 403.062C425.988 403.062 424.994 402.739 424.282 402.093C423.57 401.442 423.214 400.522 423.214 399.335H425.715C425.715 399.926 425.839 400.362 426.088 400.644C426.336 400.925 426.728 401.066 427.264 401.066C427.738 401.066 428.117 400.903 428.398 400.577C428.68 400.252 428.821 399.788 428.821 399.186V390.838ZM438.469 402.896C438.359 402.681 438.279 402.413 438.229 402.093C437.649 402.739 436.896 403.062 435.968 403.062C435.09 403.062 434.361 402.808 433.782 402.3C433.207 401.792 432.92 401.152 432.92 400.379C432.92 399.429 433.271 398.7 433.972 398.192C434.679 397.684 435.698 397.427 437.028 397.422H438.13V396.908C438.13 396.494 438.022 396.163 437.807 395.915C437.597 395.666 437.263 395.542 436.805 395.542C436.402 395.542 436.084 395.639 435.852 395.832C435.626 396.025 435.513 396.29 435.513 396.627H433.119C433.119 396.108 433.279 395.627 433.599 395.186C433.92 394.744 434.372 394.399 434.958 394.151C435.543 393.897 436.2 393.77 436.929 393.77C438.033 393.77 438.908 394.048 439.554 394.606C440.206 395.158 440.532 395.937 440.532 396.942V400.826C440.537 401.676 440.656 402.319 440.888 402.756V402.896H438.469ZM436.49 401.232C436.843 401.232 437.169 401.154 437.467 401C437.765 400.84 437.986 400.627 438.13 400.362V398.822H437.235C436.037 398.822 435.399 399.236 435.322 400.064L435.314 400.205C435.314 400.503 435.419 400.749 435.629 400.942C435.838 401.135 436.125 401.232 436.49 401.232ZM445.592 399.973L447.257 393.935H449.758L446.735 402.896H444.449L441.426 393.935H443.927L445.592 399.973ZM455.878 402.896C455.768 402.681 455.688 402.413 455.638 402.093C455.058 402.739 454.305 403.062 453.377 403.062C452.499 403.062 451.77 402.808 451.191 402.3C450.616 401.792 450.329 401.152 450.329 400.379C450.329 399.429 450.68 398.7 451.381 398.192C452.088 397.684 453.107 397.427 454.437 397.422H455.539V396.908C455.539 396.494 455.431 396.163 455.216 395.915C455.006 395.666 454.672 395.542 454.214 395.542C453.811 395.542 453.493 395.639 453.261 395.832C453.035 396.025 452.922 396.29 452.922 396.627H450.528C450.528 396.108 450.688 395.627 451.008 395.186C451.329 394.744 451.781 394.399 452.367 394.151C452.952 393.897 453.609 393.77 454.338 393.77C455.442 393.77 456.317 394.048 456.963 394.606C457.615 395.158 457.941 395.937 457.941 396.942V400.826C457.946 401.676 458.065 402.319 458.297 402.756V402.896H455.878ZM453.899 401.232C454.252 401.232 454.578 401.154 454.876 401C455.174 400.84 455.395 400.627 455.539 400.362V398.822H454.644C453.446 398.822 452.808 399.236 452.731 400.064L452.723 400.205C452.723 400.503 452.828 400.749 453.038 400.942C453.247 401.135 453.534 401.232 453.899 401.232ZM466.19 399.733C466.19 399.263 466.024 398.904 465.693 398.656C465.361 398.402 464.765 398.137 463.904 397.861C463.042 397.579 462.36 397.303 461.858 397.033C460.489 396.293 459.804 395.296 459.804 394.043C459.804 393.391 459.986 392.812 460.351 392.304C460.721 391.79 461.248 391.39 461.933 391.103C462.623 390.816 463.396 390.672 464.252 390.672C465.113 390.672 465.88 390.829 466.554 391.144C467.228 391.453 467.749 391.892 468.119 392.461C468.495 393.03 468.682 393.676 468.682 394.399H466.198C466.198 393.847 466.024 393.419 465.676 393.115C465.328 392.806 464.84 392.651 464.21 392.651C463.603 392.651 463.131 392.781 462.794 393.041C462.457 393.295 462.289 393.632 462.289 394.051C462.289 394.443 462.485 394.772 462.877 395.037C463.274 395.302 463.857 395.55 464.624 395.782C466.038 396.207 467.067 396.735 467.713 397.364C468.359 397.993 468.682 398.777 468.682 399.716C468.682 400.76 468.288 401.58 467.498 402.176C466.709 402.767 465.646 403.062 464.309 403.062C463.382 403.062 462.537 402.894 461.775 402.557C461.013 402.215 460.431 401.748 460.028 401.157C459.63 400.566 459.431 399.882 459.431 399.103H461.924C461.924 400.434 462.719 401.099 464.309 401.099C464.9 401.099 465.361 400.98 465.693 400.743C466.024 400.5 466.19 400.163 466.19 399.733ZM473.942 401.132C474.383 401.132 474.742 401.011 475.018 400.768C475.294 400.525 475.438 400.202 475.449 399.799H477.693C477.688 400.406 477.522 400.964 477.196 401.472C476.871 401.974 476.423 402.366 475.855 402.648C475.292 402.924 474.668 403.062 473.983 403.062C472.702 403.062 471.692 402.656 470.952 401.845C470.212 401.027 469.842 399.901 469.842 398.465V398.308C469.842 396.928 470.209 395.826 470.943 395.004C471.678 394.181 472.685 393.77 473.966 393.77C475.087 393.77 475.985 394.09 476.658 394.73C477.337 395.365 477.682 396.213 477.693 397.273H475.449C475.438 396.809 475.294 396.434 475.018 396.147C474.742 395.854 474.378 395.708 473.925 395.708C473.367 395.708 472.945 395.912 472.658 396.32C472.376 396.723 472.235 397.381 472.235 398.292V398.54C472.235 399.462 472.376 400.125 472.658 400.528C472.939 400.931 473.367 401.132 473.942 401.132ZM484.095 396.18C483.77 396.135 483.483 396.113 483.234 396.113C482.329 396.113 481.735 396.42 481.453 397.033V402.896H479.06V393.935H481.321L481.387 395.004C481.868 394.181 482.533 393.77 483.383 393.77C483.648 393.77 483.897 393.805 484.129 393.877L484.095 396.18ZM487.781 402.896H485.379V393.935H487.781V402.896ZM485.238 391.616C485.238 391.257 485.357 390.962 485.595 390.73C485.837 390.498 486.166 390.382 486.58 390.382C486.989 390.382 487.314 390.498 487.557 390.73C487.8 390.962 487.922 391.257 487.922 391.616C487.922 391.981 487.798 392.279 487.549 392.511C487.306 392.743 486.983 392.859 486.58 392.859C486.177 392.859 485.851 392.743 485.603 392.511C485.36 392.279 485.238 391.981 485.238 391.616ZM497.827 398.499C497.827 399.879 497.512 400.986 496.883 401.82C496.259 402.648 495.414 403.062 494.349 403.062C493.443 403.062 492.712 402.747 492.154 402.118V406.342H489.76V393.935H491.98L492.063 394.813C492.643 394.117 493.399 393.77 494.332 393.77C495.436 393.77 496.295 394.178 496.908 394.995C497.521 395.812 497.827 396.939 497.827 398.374V398.499ZM495.434 398.325C495.434 397.491 495.285 396.848 494.986 396.395C494.694 395.942 494.266 395.716 493.703 395.716C492.952 395.716 492.436 396.003 492.154 396.577V400.246C492.447 400.837 492.968 401.132 493.719 401.132C494.862 401.132 495.434 400.196 495.434 398.325ZM502.184 391.732V393.935H503.716V395.691H502.184V400.163C502.184 400.495 502.247 400.732 502.374 400.876C502.501 401.019 502.744 401.091 503.103 401.091C503.368 401.091 503.603 401.072 503.807 401.033V402.847C503.338 402.99 502.854 403.062 502.358 403.062C500.679 403.062 499.823 402.215 499.79 400.519V395.691H498.481V393.935H499.79V391.732H502.184Z" fill="black"/>
<path d="M181.202 185.643C182.053 185.771 182.846 185.185 182.973 184.334L185.053 170.471C185.18 169.62 184.594 168.827 183.744 168.7C182.893 168.572 182.1 169.158 181.972 170.009L180.124 182.332L167.801 180.483C166.951 180.356 166.157 180.942 166.03 181.792C165.902 182.643 166.488 183.436 167.339 183.564L181.202 185.643ZM95.4496 70.3927L180.181 185.029L182.686 183.177L97.9547 68.5411L95.4496 70.3927Z" fill="black"/>
<path d="M146.561 357.845C146.688 358.696 147.481 359.282 148.332 359.155L162.196 357.08C163.046 356.953 163.633 356.16 163.505 355.309C163.378 354.459 162.585 353.872 161.735 354L149.411 355.844L147.567 343.52C147.44 342.67 146.647 342.083 145.796 342.21C144.946 342.338 144.359 343.131 144.487 343.981L146.561 357.845ZM219.431 258.562L146.849 356.688L149.354 358.541L221.936 260.415L219.431 258.562Z" fill="black"/>
<path d="M276.277 364.634C276.885 365.243 277.872 365.243 278.48 364.634L288.392 354.722C289 354.114 289 353.128 288.392 352.52C287.784 351.911 286.798 351.911 286.189 352.52L277.378 361.33L268.568 352.52C267.959 351.911 266.973 351.911 266.365 352.52C265.757 353.128 265.757 354.114 266.365 354.722L276.277 364.634ZM275.821 253.57L275.821 363.533L278.936 363.533L278.936 253.57L275.821 253.57Z" fill="black"/>
<path d="M395.982 361.925C396.814 362.142 397.665 361.644 397.883 360.811L401.423 347.248C401.64 346.416 401.142 345.565 400.309 345.347C399.477 345.13 398.626 345.629 398.409 346.461L395.262 358.518L383.205 355.37C382.373 355.153 381.522 355.652 381.305 356.484C381.088 357.316 381.586 358.167 382.419 358.385L395.982 361.925ZM332.418 254.357L395.032 361.205L397.719 359.63L335.106 252.782L332.418 254.357Z" fill="black"/>
<path d="M371.155 185.54C371.261 186.394 372.038 187 372.892 186.895L386.804 185.171C387.658 185.066 388.264 184.288 388.158 183.434C388.052 182.581 387.275 181.974 386.421 182.08L374.055 183.612L372.523 171.246C372.417 170.392 371.64 169.786 370.786 169.892C369.932 169.997 369.326 170.775 369.432 171.629L371.155 185.54ZM461.81 68.5093L371.472 184.391L373.929 186.307L464.267 70.4245L461.81 68.5093Z" fill="black"/>
</svg>
